<svg width="16" height="17" viewBox="0 0 16 17" fill="none" xmlns="http://www.w3.org/2000/svg">
<path fill-rule="evenodd" clip-rule="evenodd" d="M10.6407 10.8282L15.3142 15.502C15.4355 15.6275 15.4338 15.8271 15.3103 15.9506C15.1869 16.074 14.9873 16.0757 14.8618 15.9545L10.1882 11.2807C7.72907 13.4946 3.95377 13.346 1.67619 10.9458C-0.601403 8.5455 -0.551872 4.76761 1.78786 2.42788C4.12759 0.0881425 7.90549 0.0386118 10.3058 2.3162C12.706 4.59379 12.8546 8.36909 10.6407 10.8282ZM0.688002 6.76825C0.688002 9.77268 3.12357 12.2083 6.128 12.2083C9.13097 12.2047 11.5645 9.77122 11.568 6.76825C11.568 3.76382 9.13243 1.32825 6.128 1.32825C3.12357 1.32825 0.688002 3.76382 0.688002 6.76825Z" fill="black"/>
</svg>
